<svg version="1" xmlns="http://www.w3.org/2000/svg" width="933.333" height="933.333" viewBox="0 0 700.000000 700.000000"><path d="M338 43.3c-6.8 13.8-20.7 42.1-30.8 62.7-10.1 20.6-22.8 46.5-28.2 57.5-5.4 11-16.2 33-24 49-7.8 15.9-19.8 40.2-26.5 54-6.7 13.7-18.3 37.4-25.8 52.5-7.4 15.1-18.8 38.5-25.4 52-6.7 13.5-18.9 38.4-27.3 55.5-8.4 17-19.9 40.4-25.5 52-5.7 11.5-18.6 37.9-28.7 58.5-10.1 20.6-24.7 50.3-32.4 66-7.6 15.7-17.5 35.8-21.9 44.7-4.5 8.9-7.6 16.4-7 16.5.9.3 113 .2 116.2-.1.6-.1 1.9-2.5 2.8-5.4 4.2-13 15-34.8 23.7-47.5 15.5-22.8 37.2-44.3 58.3-57.8 12.1-7.7 14-8.8 14.5-8.9.3 0 1.2-.5 2-1 9-5.7 35.6-15.8 50.1-19.1 1-.2 2.9-.6 4.2-.9 14.6-3.2 23-4 44.2-4 21.3 0 26.9.5 43.6 4 42.6 9 82.8 32.4 111.3 64.9 8.7 9.8 13.9 16.4 15.4 19.3.7 1.2 1.8 2.7 2.5 3.5 4.7 4.8 18.8 32.6 23.1 45.3.9 2.7 2 5.6 2.5 6.4.8 1.3 9.6 1.5 59.5 1.5 32.2.1 58.6 0 58.6-.2 0-.4-13.8-28.7-33-67.7-10-20.4-22.4-45.6-27.5-56-5.1-10.5-15.3-31.4-22.8-46.5-7.4-15.1-19.3-39.4-26.4-54-7.2-14.6-19-38.7-26.3-53.5-7.3-14.9-18.5-37.8-25-51-16-32.6-34.9-71.2-52-106-7.8-16-18.9-38.5-24.5-50-9.5-19.5-18-36.7-51-104-7-14.3-16.2-33.1-20.4-41.7L350.4 18 338 43.3zM369.5 298c8.6 18.4 17.2 36.6 19 40.5 1.8 3.8 5.2 11 7.5 16 2.3 4.9 7.8 16.6 12.2 26 4.4 9.3 10.7 22.6 13.9 29.4 3.3 6.8 5.9 12.6 5.9 12.8 0 .2 1.8 4.1 4.1 8.6 2.2 4.5 4.7 9.7 5.5 11.6 1.6 3.9 2.8 3.9-12.6-.2-13.1-3.5-27.1-6.2-37-7.2-3-.4-6.6-.9-8-1.1-4.3-1-48.2-1.2-55-.4-3.6.5-9 1.1-12 1.4-3 .3-6.8.8-8.5 1.1-13.2 2.3-21.5 4.2-30.8 6.7-6 1.7-11 2.8-11.3 2.6-.5-.5 1.2-4.2 26.9-58.8 6.3-13.5 13.2-28.1 15.2-32.5 2.1-4.4 5.9-12.5 8.5-18 7.1-15.1 11.7-24.9 14.6-31.2 1.5-3.2 5.7-12 9.3-19.8 3.7-7.7 8.2-17.2 10.1-21.2l3.4-7.2 1.6 3.7c1 2 8.8 18.8 17.5 37.2z"/></svg>